<?xml version="1.0" encoding="UTF-8"?>
<!DOCTYPE svg PUBLIC "-//W3C//DTD SVG 1.2 Tiny//EN" "http://www.w3.org/Graphics/SVG/1.2/DTD/svg12-tiny.dtd">
<svg version="1.2" baseProfile="tiny" xmlns="http://www.w3.org/2000/svg" viewBox="0 0 720 720">
<path d=" M 267.28 49.21 C 268.94 49.21 270.60 49.20 272.26 49.18 C 272.53 71.13 272.42 93.09 272.31 115.04 C 270.63 114.99 268.95 114.95 267.28 114.91 C 267.35 93.01 267.35 71.11 267.28 49.21 Z" transform="matrix(1.311475,0,0,1.311475,0.000000,129.180328)" fill="#000000"/>
<path d=" M 391.03 64.35 C 401.90 62.52 413.12 62.34 423.97 64.40 C 436.41 65.93 448.12 70.64 460.18 73.78 C 463.24 74.41 466.64 75.14 469.58 73.64 C 471.91 72.26 473.12 69.67 475.12 67.92 C 476.23 68.00 477.34 68.14 478.44 68.34 C 479.83 82.20 478.37 96.20 479.80 110.05 C 479.94 112.07 479.93 114.10 479.96 116.13 C 476.78 115.51 473.59 115.02 470.37 114.71 C 464.19 99.61 454.86 85.02 440.84 76.13 C 432.05 70.45 421.46 67.53 411.00 67.97 C 392.10 67.61 374.00 77.84 363.09 93.03 C 358.07 99.76 354.23 107.27 350.95 114.98 C 340.00 115.00 329.05 115.06 318.10 114.94 C 323.90 103.68 332.51 94.22 341.91 85.86 C 355.78 74.19 373.02 66.54 391.03 64.35 Z" transform="matrix(1.311475,0,0,1.311475,0.000000,129.180328)" fill="#000000"/>
<path d=" M 40.20 68.90 C 42.79 68.61 45.39 68.52 48.00 68.54 C 74.13 68.65 100.27 68.48 126.40 68.60 C 126.34 69.40 126.22 70.99 126.16 71.79 C 119.52 72.07 111.62 72.52 107.04 78.04 C 104.75 81.21 104.86 85.48 105.78 89.12 C 107.73 98.59 113.44 106.56 117.98 114.89 C 106.33 115.12 94.68 114.95 83.03 114.99 C 77.54 105.86 72.90 96.14 66.09 87.87 C 59.90 79.63 51.03 73.04 40.69 71.34 C 40.56 70.73 40.32 69.51 40.20 68.90 Z" transform="matrix(1.311475,0,0,1.311475,0.000000,129.180328)" fill="#000000"/>
<path d=" M 173.57 71.00 C 172.98 67.67 176.96 68.82 179.00 68.53 C 198.68 68.80 218.39 68.19 238.07 68.85 C 237.37 69.80 237.28 71.60 235.86 71.76 C 230.66 72.87 225.80 75.29 221.73 78.72 C 209.68 88.66 201.16 101.96 192.82 114.96 C 190.50 114.98 188.17 114.98 185.84 114.98 C 189.55 107.09 193.74 99.22 195.33 90.56 C 196.24 85.47 195.63 79.18 190.87 76.12 C 185.92 72.19 179.37 72.48 173.57 71.00 Z" transform="matrix(1.311475,0,0,1.311475,0.000000,129.180328)" fill="#000000"/>
<path d=" M 158.39 133.06 C 166.65 141.24 174.33 150.00 182.67 158.10 C 182.76 150.06 182.60 142.02 182.74 133.97 C 183.50 134.00 185.03 134.06 185.80 134.09 C 185.77 144.72 185.84 155.36 185.77 165.99 C 177.71 157.95 170.32 149.25 161.95 141.53 C 161.52 149.34 161.96 157.16 161.75 164.98 C 160.62 164.94 159.50 164.90 158.38 164.87 C 158.39 154.27 158.54 143.66 158.39 133.06 Z" transform="matrix(1.311475,0,0,1.311475,0.000000,129.180328)" fill="#000000"/>
<path d=" M 335.46 133.04 C 340.33 143.56 344.78 154.27 349.24 164.97 C 348.42 164.98 346.78 165.02 345.96 165.04 C 344.61 162.05 343.32 159.03 342.03 156.02 C 337.64 155.99 333.26 156.00 328.88 155.98 C 327.52 158.96 326.21 161.97 324.92 164.98 C 324.08 164.97 322.40 164.95 321.56 164.94 C 325.93 154.19 330.84 143.68 335.46 133.04 M 335.40 140.77 C 333.51 144.78 331.76 148.85 330.09 152.95 C 333.67 153.01 337.24 153.01 340.82 152.97 C 339.14 148.85 337.58 144.66 335.40 140.77 Z" transform="matrix(1.311475,0,0,1.311475,0.000000,129.180328)" fill="#000000"/>
<path d=" M 362.41 133.06 C 370.65 141.25 378.28 150.04 386.67 158.07 C 386.76 150.04 386.57 142.01 386.76 133.98 C 387.51 134.01 389.01 134.08 389.76 134.11 C 389.78 144.73 389.86 155.36 389.74 165.98 C 381.71 157.93 374.31 149.24 365.98 141.50 C 365.53 149.32 365.94 157.16 365.78 164.99 C 364.65 164.95 363.52 164.91 362.40 164.88 C 362.57 154.27 362.22 143.67 362.41 133.06 Z" transform="matrix(1.311475,0,0,1.311475,0.000000,129.180328)" fill="#000000"/>
<path d=" M 73.52 151.02 C 72.42 141.54 81.66 133.14 90.91 134.09 C 94.35 134.64 99.16 135.59 99.10 139.99 C 94.81 138.48 90.27 135.78 85.62 137.62 C 79.31 139.35 75.25 146.54 77.24 152.83 C 78.78 158.25 84.30 162.23 89.92 161.99 C 93.16 161.67 96.05 160.05 99.10 159.04 C 99.00 163.36 94.35 164.38 90.90 164.90 C 82.70 165.70 74.31 159.38 73.52 151.02 Z" transform="matrix(1.311475,0,0,1.311475,0.000000,129.180328)" fill="#000000"/>
<path d=" M 125.32 134.33 C 133.92 132.48 143.41 139.13 144.17 148.00 C 145.03 155.14 139.98 162.15 133.17 164.14 C 124.41 167.31 113.68 161.04 112.31 151.78 C 110.94 143.64 117.41 135.73 125.32 134.33 M 125.34 137.34 C 120.64 138.46 116.60 142.24 115.69 147.06 C 114.30 152.96 118.23 159.15 123.80 161.15 C 131.31 164.37 141.01 158.26 140.98 149.98 C 141.67 141.91 132.97 135.28 125.34 137.34 Z" transform="matrix(1.311475,0,0,1.311475,0.000000,129.180328)" fill="#000000"/>
<path d=" M 206.10 135.15 C 210.35 132.58 215.87 134.61 218.39 138.62 C 217.81 138.92 216.63 139.54 216.04 139.84 C 214.04 138.42 211.86 136.36 209.18 137.09 C 206.17 137.46 203.67 141.51 205.98 143.99 C 209.93 147.93 217.84 147.70 219.23 154.05 C 220.97 160.97 212.87 166.96 206.59 164.42 C 203.19 163.43 201.25 160.26 200.06 157.15 C 200.76 157.08 202.15 156.92 202.85 156.84 C 204.70 159.43 207.15 162.81 210.83 161.94 C 214.76 161.50 217.49 157.03 215.57 153.43 C 212.28 149.38 205.93 149.54 202.81 145.24 C 200.58 141.74 202.31 136.73 206.10 135.15 Z" transform="matrix(1.311475,0,0,1.311475,0.000000,129.180328)" fill="#000000"/>
<path d=" M 233.72 134.00 C 234.54 134.00 236.17 134.00 236.98 134.00 C 237.13 141.02 236.85 148.05 237.07 155.06 C 236.81 160.16 243.09 163.36 247.43 161.45 C 249.81 160.67 251.90 158.61 251.96 155.99 C 252.36 148.71 251.78 141.41 252.22 134.13 C 253.00 134.08 254.55 134.00 255.33 133.95 C 255.43 140.98 255.52 148.01 255.36 155.03 C 255.60 162.13 246.98 166.94 240.78 164.21 C 236.84 162.94 233.73 159.27 233.75 155.04 C 233.49 148.03 233.66 141.01 233.72 134.00 Z" transform="matrix(1.311475,0,0,1.311475,0.000000,129.180328)" fill="#000000"/>
<path d=" M 271.06 134.01 C 271.85 134.01 273.42 134.00 274.20 134.00 C 274.30 143.30 274.16 152.61 274.23 161.92 C 277.15 161.98 280.07 162.02 283.00 162.06 C 283.00 162.79 282.99 164.24 282.99 164.97 C 279.02 165.02 275.04 165.02 271.07 164.95 C 270.92 154.64 270.93 144.32 271.06 134.01 Z" transform="matrix(1.311475,0,0,1.311475,0.000000,129.180328)" fill="#000000"/>
<path d=" M 292.99 134.04 C 299.06 133.96 305.13 133.99 311.20 134.02 C 311.21 134.76 311.22 136.23 311.22 136.97 C 308.75 136.99 306.28 137.02 303.81 137.05 C 303.69 146.36 303.80 155.67 303.75 164.99 C 302.61 164.95 301.47 164.91 300.33 164.88 C 300.05 155.60 300.53 146.32 300.38 137.03 C 297.91 137.01 295.44 136.97 292.98 136.95 C 292.98 136.22 292.99 134.77 292.99 134.04 Z" transform="matrix(1.311475,0,0,1.311475,0.000000,129.180328)" fill="#000000"/>
<path d=" M 402.96 134.03 C 408.98 133.98 415.00 133.97 421.03 134.03 C 421.03 134.76 421.04 136.22 421.04 136.95 C 418.60 136.98 416.16 137.02 413.72 137.05 C 413.60 146.34 413.75 155.64 413.68 164.94 C 412.53 164.93 411.39 164.93 410.25 164.94 C 410.14 155.64 410.43 146.34 410.25 137.04 C 407.82 137.02 405.38 136.98 402.95 136.96 C 402.95 136.22 402.96 134.76 402.96 134.03 Z" transform="matrix(1.311475,0,0,1.311475,0.000000,129.180328)" fill="#000000"/>
<path d=" M 439.59 134.61 C 443.62 132.77 447.82 135.22 450.66 138.02 C 450.20 138.53 449.28 139.54 448.82 140.04 C 446.76 138.75 444.77 136.74 442.16 136.97 C 439.06 137.11 436.03 140.87 438.09 143.73 C 441.83 147.86 449.43 147.55 451.42 153.42 C 453.77 160.24 445.86 166.89 439.40 164.54 C 435.71 163.66 433.26 160.35 432.58 156.75 C 436.59 156.44 437.42 161.52 441.15 161.94 C 445.75 162.86 450.36 157.72 447.84 153.36 C 444.47 149.34 438.03 149.49 435.04 145.00 C 432.74 141.04 435.31 135.79 439.59 134.61 Z" transform="matrix(1.311475,0,0,1.311475,0.000000,129.180328)" fill="#000000"/>
<path d=" M 123.20 188.19 C 133.79 188.19 144.37 188.19 154.96 188.18 C 155.21 201.13 154.91 214.09 155.10 227.04 C 155.87 236.26 155.91 245.79 159.43 254.50 C 161.28 259.04 164.98 262.80 169.61 264.49 C 174.16 266.58 179.23 266.48 184.11 266.83 C 184.04 267.56 183.90 269.03 183.83 269.77 C 154.06 269.60 124.29 269.89 94.53 269.63 C 94.43 268.96 94.22 267.61 94.11 266.93 C 101.89 266.65 110.85 265.62 115.90 258.91 C 121.42 251.19 121.30 241.27 122.56 232.25 C 123.53 217.58 122.80 202.87 123.20 188.19 Z" transform="matrix(1.311475,0,0,1.311475,0.000000,129.180328)" fill="#000000"/>
<path d=" M 267.31 188.19 C 268.96 188.17 270.61 188.14 272.27 188.11 C 272.50 217.37 272.45 246.63 272.31 275.89 C 270.63 275.86 268.95 275.85 267.27 275.84 C 267.38 246.63 267.32 217.41 267.31 188.19 Z" transform="matrix(1.311475,0,0,1.311475,0.000000,129.180328)" fill="#000000"/>
<path d=" M 305.23 188.23 C 317.43 188.05 329.64 188.24 341.85 188.17 C 343.74 210.13 350.65 232.63 365.96 249.04 C 377.25 261.58 394.10 269.01 411.00 268.45 C 422.85 268.77 435.19 265.16 443.98 256.96 C 452.37 248.71 456.36 236.64 455.81 225.00 C 456.10 216.63 455.16 207.29 448.93 201.06 C 442.53 195.70 433.81 194.12 425.68 193.87 C 425.64 193.10 425.56 191.54 425.52 190.77 C 454.65 190.80 483.80 190.58 512.93 190.87 C 512.91 191.58 512.86 193.01 512.83 193.72 C 505.55 194.60 497.81 195.43 491.52 199.54 C 487.32 202.33 486.08 207.55 485.25 212.21 C 483.25 225.80 484.73 239.53 484.61 253.19 C 480.46 253.45 475.96 252.08 472.12 254.17 C 461.20 259.70 449.97 264.76 438.20 268.21 C 414.54 274.92 388.79 275.58 365.33 267.69 C 345.26 261.11 328.09 246.57 317.75 228.21 C 310.70 215.99 307.00 202.15 305.23 188.23 Z" transform="matrix(1.311475,0,0,1.311475,0.000000,129.180328)" fill="#000000"/>
</svg>
